REM DIRINDEX 1\4,1\2\5,1\2\6,1\3\7,1\3\8
REM DIRNAME folder01,folder02,folder03,folder04,folder05,folder06,folder07,folder08
TITLE ""
FILE "082_Day41_Check3_Sentences.mp3" MP3
  TRACK 01 AUDIO
    TITLE "0:"
    INDEX 01 00:00:00
  TRACK 02 AUDIO
    TITLE "4:cjc124_2676"
    INDEX 01 00:00:25
  TRACK 03 AUDIO
    TITLE "0:"
    INDEX 01 00:02:00
  TRACK 04 AUDIO
    TITLE "7:cjc124_2677"
    INDEX 01 00:02:47
  TRACK 05 AUDIO
    TITLE "0:"
    INDEX 01 00:05:20
  TRACK 06 AUDIO
    TITLE "8:cjc124_2678"
    INDEX 01 00:05:38
  TRACK 07 AUDIO
    TITLE "0:"
    INDEX 01 00:07:31
  TRACK 08 AUDIO
    TITLE "7:cjc124_2679"
    INDEX 01 00:07:68
  TRACK 09 AUDIO
    TITLE "0:"
    INDEX 01 00:11:01
  TRACK 10 AUDIO
    TITLE "8:cjc124_2680"
    INDEX 01 00:11:19
  TRACK 11 AUDIO
    TITLE "0:"
    INDEX 01 00:14:25
  TRACK 12 AUDIO
    TITLE "7:cjc124_2681"
    INDEX 01 00:14:62
  TRACK 13 AUDIO
    TITLE "0:"
    INDEX 01 00:17:29
  TRACK 14 AUDIO
    TITLE "8:cjc124_2682"
    INDEX 01 00:17:49
  TRACK 15 AUDIO
    TITLE "0:"
    INDEX 01 00:20:30
  TRACK 16 AUDIO
    TITLE "7:cjc124_2683"
    INDEX 01 00:20:69
  TRACK 17 AUDIO
    TITLE "0:"
    INDEX 01 00:22:54
  TRACK 18 AUDIO
    TITLE "8:cjc124_2684"
    INDEX 01 00:23:01
  TRACK 19 AUDIO
    TITLE "0:"
    INDEX 01 00:25:15
  TRACK 20 AUDIO
    TITLE "7:cjc124_2685"
    INDEX 01 00:25:54
  TRACK 21 AUDIO
    TITLE "0:"
    INDEX 01 00:28:06
  TRACK 22 AUDIO
    TITLE "8:cjc124_2686"
    INDEX 01 00:28:25
  TRACK 23 AUDIO
    TITLE "0:"
    INDEX 01 00:30:46
  TRACK 24 AUDIO
    TITLE "7:cjc124_2687"
    INDEX 01 00:31:12
  TRACK 25 AUDIO
    TITLE "0:"
    INDEX 01 00:33:58
  TRACK 26 AUDIO
    TITLE "8:cjc124_2688"
    INDEX 01 00:34:02
  TRACK 27 AUDIO
    TITLE "0:"
    INDEX 01 00:36:27
  TRACK 28 AUDIO
    TITLE "7:cjc124_2689"
    INDEX 01 00:36:64
  TRACK 29 AUDIO
    TITLE "0:"
    INDEX 01 00:39:33
  TRACK 30 AUDIO
    TITLE "8:cjc124_2690"
    INDEX 01 00:39:52
  TRACK 31 AUDIO
    TITLE "0:"
    INDEX 01 00:41:73
  TRACK 32 AUDIO
    TITLE "7:cjc124_2691"
    INDEX 01 00:42:39
  TRACK 33 AUDIO
    TITLE "0:"
    INDEX 01 00:44:60
  TRACK 34 AUDIO
    TITLE "8:cjc124_2692"
    INDEX 01 00:45:02
  TRACK 35 AUDIO
    TITLE "0:"
    INDEX 01 00:47:38
  TRACK 36 AUDIO
    TITLE "7:cjc124_2693"
    INDEX 01 00:47:72
  TRACK 37 AUDIO
    TITLE "0:"
    INDEX 01 00:50:44
  TRACK 38 AUDIO
    TITLE "8:cjc124_2694"
    INDEX 01 00:50:60
  TRACK 39 AUDIO
    TITLE "0:"
    INDEX 01 00:53:31
  TRACK 40 AUDIO
    TITLE "7:cjc124_2695"
    INDEX 01 00:54:03
  TRACK 41 AUDIO
    TITLE "0:"
    INDEX 01 00:56:49
  TRACK 42 AUDIO
    TITLE "8:cjc124_2696"
    INDEX 01 00:56:71
  TRACK 43 AUDIO
    TITLE "0:"
    INDEX 01 00:59:28
  TRACK 44 AUDIO
    TITLE "7:cjc124_2697"
    INDEX 01 00:59:67
  TRACK 45 AUDIO
    TITLE "0:"
    INDEX 01 01:02:05
  TRACK 46 AUDIO
    TITLE "8:cjc124_2698"
    INDEX 01 01:02:26
  TRACK 47 AUDIO
    TITLE "0:"
    INDEX 01 01:04:58
  TRACK 48 AUDIO
    TITLE "7:cjc124_2699"
    INDEX 01 01:05:26
  TRACK 49 AUDIO
    TITLE "0:"
    INDEX 01 01:07:55
  TRACK 50 AUDIO
    TITLE "8:cjc124_2700"
    INDEX 01 01:07:74
  TRACK 51 AUDIO
    TITLE "0:"
    INDEX 01 01:10:49
  TRACK 52 AUDIO
    TITLE "7:cjc124_2701"
    INDEX 01 01:11:13
  TRACK 53 AUDIO
    TITLE "0:"
    INDEX 01 01:13:40
  TRACK 54 AUDIO
    TITLE "8:cjc124_2702"
    INDEX 01 01:13:61
  TRACK 55 AUDIO
    TITLE "0:"
    INDEX 01 01:16:52
  TRACK 56 AUDIO
    TITLE "7:cjc124_2703"
    INDEX 01 01:17:16
  TRACK 57 AUDIO
    TITLE "0:"
    INDEX 01 01:19:13
  TRACK 58 AUDIO
    TITLE "8:cjc124_2704"
    INDEX 01 01:19:30
  TRACK 59 AUDIO
    TITLE "0:"
    INDEX 01 01:21:29
  TRACK 60 AUDIO
    TITLE "7:cjc124_2705"
    INDEX 01 01:21:65
  TRACK 61 AUDIO
    TITLE "0:"
    INDEX 01 01:24:49
  TRACK 62 AUDIO
    TITLE "8:cjc124_2706"
    INDEX 01 01:24:73
  TRACK 63 AUDIO
    TITLE "0:"
    INDEX 01 01:27:22
  TRACK 64 AUDIO
    TITLE "7:cjc124_2707"
    INDEX 01 01:27:59
  TRACK 65 AUDIO
    TITLE "0:"
    INDEX 01 01:30:40
  TRACK 66 AUDIO
    TITLE "8:cjc124_2708"
    INDEX 01 01:30:64
  TRACK 67 AUDIO
    TITLE "0:"
    INDEX 01 01:33:36
